<svg xmlns="http://www.w3.org/2000/svg" viewBox="0 0 100 100">
  <path fill="#764ba2" d="M50,5C25.2,5,5,25.2,5,50s20.2,45,45,45s45-20.2,45-45S74.8,5,50,5z M71.1,71.1c-5.7,5.7-13.3,8.9-21.1,8.9
    s-15.4-3.2-21.1-8.9c-5.7-5.7-8.9-13.3-8.9-21.1s3.2-15.4,8.9-21.1C34.6,23.2,42.2,20,50,20s15.4,3.2,21.1,8.9
    c5.7,5.7,8.9,13.3,8.9,21.1S76.8,65.4,71.1,71.1z"/>
  <path fill="#764ba2" d="M60.3,39.1c-1.1-1.1-2.4-1.6-3.9-1.6c-1.5,0-2.8,0.5-3.9,1.6c-1.1,1.1-1.6,2.4-1.6,3.9c0,1.5,0.5,2.8,1.6,3.9
    c1.1,1.1,2.4,1.6,3.9,1.6c1.5,0,2.8-0.5,3.9-1.6c1.1-1.1,1.6-2.4,1.6-3.9C61.9,41.5,61.4,40.2,60.3,39.1z"/>
  <path fill="#764ba2" d="M50,30c-2.8,0-5.2,1-7.1,2.9C40.9,34.8,40,37.2,40,40c0,2.8,1,5.2,2.9,7.1c1.9,1.9,4.3,2.9,7.1,2.9
    c2.8,0,5.2-1,7.1-2.9c1.9-1.9,2.9-4.3,2.9-7.1c0-2.8-1-5.2-2.9-7.1C55.2,31,52.8,30,50,30z"/>
</svg> 